<svg width="333" height="333" viewBox="0 0 333 333" fill="none" xmlns="http://www.w3.org/2000/svg">
<ellipse cx="170.884" cy="177.395" rx="78.5" ry="78.556" fill="#F1F1F1"/>
<ellipse cx="163.781" cy="99.5765" rx="4.26283" ry="4.26587" fill="#C4C4C4"/>
<ellipse cx="218.271" cy="101.492" rx="1.91386" ry="1.91523" fill="#C4C4C4"/>
<ellipse cx="208.121" cy="131.625" rx="1.91386" ry="1.91523" fill="#C4C4C4"/>
<ellipse cx="235.896" cy="152.038" rx="2.48802" ry="2.4898" fill="#C4C4C4"/>
<ellipse cx="119.379" cy="92.8208" rx="2.48802" ry="2.4898" fill="#C4C4C4"/>
<path d="M195.082 81.7247L197.372 79.4331L199.028 81.0899L196.737 83.3816L199.326 85.9716L197.581 87.7174L194.993 85.1273L192.697 87.4254L191.041 85.7685L193.337 83.4705L190.857 80.9883L192.601 79.2426L195.082 81.7247Z" fill="#E6E6E6"/>
<path d="M135.117 104.655L136.961 102.81L138.293 104.144L136.45 105.989L138.533 108.074L137.129 109.479L135.045 107.394L133.197 109.244L131.864 107.91L133.713 106.06L131.716 104.062L133.12 102.657L135.117 104.655Z" fill="#E6E6E6"/>
<path d="M110.448 135.989L111.623 134.813L112.472 135.663L111.298 136.839L112.625 138.168L111.73 139.063L110.403 137.735L109.224 138.914L108.375 138.064L109.553 136.885L108.281 135.611L109.176 134.716L110.448 135.989Z" fill="#E6E6E6"/>
<path d="M235.994 124.423L237.169 123.247L238.018 124.097L236.843 125.273L238.171 126.602L237.276 127.497L235.948 126.169L234.77 127.348L233.921 126.498L235.099 125.319L233.827 124.045L234.722 123.15L235.994 124.423Z" fill="#E6E6E6"/>
<path opacity="0.8" fill-rule="evenodd" clip-rule="evenodd" d="M139.021 140.162H133.773C132.748 140.162 131.766 139.756 131.041 139.031C130.317 138.307 129.91 137.324 129.91 136.3C129.91 135.276 130.317 134.293 131.041 133.569C131.766 132.844 132.748 132.438 133.773 132.438H142.028C142.888 132.438 143.722 132.724 144.4 133.252C145.079 133.78 145.561 134.519 145.772 135.352L153.507 165.928C155.041 165.073 156.768 164.624 158.524 164.625H199.667C201.225 164.629 202.763 164.984 204.165 165.664C205.567 166.344 206.798 167.331 207.765 168.553C208.733 169.774 209.413 171.198 209.754 172.719C210.095 174.24 210.088 175.817 209.735 177.335L205.703 195.159C205.191 197.452 203.914 199.502 202.082 200.972C200.25 202.442 197.973 203.246 195.624 203.25H162.561C160.214 203.246 157.937 202.443 156.107 200.973C154.276 199.504 153 197.455 152.488 195.164L148.45 177.33C148.395 177.083 148.349 176.834 148.311 176.583C148.202 176.352 148.115 176.111 148.054 175.862L139.021 140.162ZM159.78 221.275C162.17 221.275 164.463 220.325 166.153 218.635C167.843 216.945 168.793 214.653 168.793 212.262C168.793 209.872 167.843 207.58 166.153 205.89C164.463 204.2 162.17 203.25 159.78 203.25C157.39 203.25 155.098 204.2 153.407 205.89C151.717 207.58 150.768 209.872 150.768 212.262C150.768 214.653 151.717 216.945 153.407 218.635C155.098 220.325 157.39 221.275 159.78 221.275ZM195.83 221.275C198.22 221.275 200.513 220.325 202.203 218.635C203.893 216.945 204.843 214.653 204.843 212.262C204.843 209.872 203.893 207.58 202.203 205.89C200.513 204.2 198.22 203.25 195.83 203.25C193.44 203.25 191.148 204.2 189.457 205.89C187.767 207.58 186.818 209.872 186.818 212.262C186.818 214.653 187.767 216.945 189.457 218.635C191.148 220.325 193.44 221.275 195.83 221.275Z" fill="#DBDBDB"/>
<path d="M131.259 138.875H125.017C124.334 138.875 123.679 138.604 123.197 138.121C122.714 137.638 122.442 136.983 122.442 136.3C122.442 135.617 122.714 134.962 123.197 134.479C123.679 133.996 124.334 133.725 125.017 133.725H133.273C133.847 133.725 134.405 133.917 134.858 134.271C135.31 134.625 135.632 135.12 135.771 135.677L145.54 174.817C145.688 175.473 145.573 176.161 145.22 176.734C144.867 177.306 144.304 177.718 143.651 177.881C142.999 178.043 142.308 177.944 141.728 177.605C141.147 177.265 140.723 176.712 140.545 176.063L131.259 138.875Z" fill="#C5C5C5"/>
<path fill-rule="evenodd" clip-rule="evenodd" d="M191.942 164.625H150.793C150.021 164.625 149.248 164.713 148.491 164.883C145.812 165.51 143.491 167.173 142.036 169.508C140.58 171.843 140.109 174.659 140.725 177.34L144.757 195.165C145.27 197.456 146.547 199.506 148.379 200.975C150.21 202.445 152.488 203.247 154.836 203.25H187.909C190.256 203.244 192.532 202.44 194.362 200.971C196.192 199.502 197.469 197.455 197.983 195.165L202.015 177.335C202.368 175.817 202.375 174.239 202.033 172.718C201.692 171.197 201.012 169.772 200.044 168.551C199.075 167.329 197.844 166.342 196.441 165.662C195.039 164.982 193.501 164.628 191.942 164.625ZM149.65 169.904C150.027 169.818 150.412 169.774 150.798 169.775H191.942C192.727 169.779 193.501 169.961 194.206 170.306C194.911 170.651 195.53 171.151 196.015 171.768C196.5 172.386 196.84 173.104 197.008 173.871C197.177 174.638 197.17 175.433 196.989 176.197L192.951 194.026C192.697 195.177 192.058 196.207 191.141 196.947C190.224 197.687 189.083 198.094 187.904 198.1H154.836C152.426 198.1 150.33 196.411 149.789 194.026L145.757 176.197C145.444 174.846 145.679 173.426 146.409 172.247C147.139 171.068 148.306 170.226 149.655 169.904H149.65Z" fill="#C5C5C5"/>
<path d="M199.692 212.262C199.692 214.653 198.743 216.945 197.052 218.635C195.362 220.325 193.07 221.275 190.68 221.275C188.289 221.275 185.997 220.325 184.307 218.635C182.617 216.945 181.667 214.653 181.667 212.262C181.667 209.872 182.617 207.58 184.307 205.89C185.997 204.2 188.289 203.25 190.68 203.25C193.07 203.25 195.362 204.2 197.052 205.89C198.743 207.58 199.692 209.872 199.692 212.262ZM163.642 212.262C163.642 213.446 163.409 214.618 162.956 215.711C162.503 216.805 161.839 217.798 161.002 218.635C160.166 219.472 159.172 220.136 158.079 220.589C156.985 221.042 155.813 221.275 154.63 221.275C153.446 221.275 152.274 221.042 151.181 220.589C150.087 220.136 149.094 219.472 148.257 218.635C147.42 217.798 146.756 216.805 146.303 215.711C145.85 214.618 145.617 213.446 145.617 212.262C145.617 209.872 146.567 207.58 148.257 205.89C149.947 204.2 152.239 203.25 154.63 203.25C157.02 203.25 159.312 204.2 161.002 205.89C162.693 207.58 163.642 209.872 163.642 212.262Z" fill="#C5C5C5"/>
<path d="M169 177C169 177.788 168.845 178.568 168.543 179.296C168.242 180.024 167.8 180.685 167.243 181.243C166.685 181.8 166.024 182.242 165.296 182.543C164.568 182.845 163.788 183 163 183C162.212 183 161.432 182.845 160.704 182.543C159.976 182.242 159.315 181.8 158.757 181.243C158.2 180.685 157.758 180.024 157.457 179.296C157.155 178.568 157 177.788 157 177H158.323C158.323 177.614 158.444 178.222 158.679 178.79C158.914 179.357 159.258 179.873 159.693 180.307C160.127 180.742 160.643 181.086 161.21 181.321C161.778 181.556 162.386 181.677 163 181.677C163.614 181.677 164.222 181.556 164.79 181.321C165.357 181.086 165.873 180.742 166.307 180.307C166.742 179.873 167.086 179.357 167.321 178.79C167.556 178.222 167.677 177.614 167.677 177H169Z" fill="#C5C5C5"/>
<path d="M190 177C190 177.788 189.845 178.568 189.543 179.296C189.242 180.024 188.8 180.685 188.243 181.243C187.685 181.8 187.024 182.242 186.296 182.543C185.568 182.845 184.788 183 184 183C183.212 183 182.432 182.845 181.704 182.543C180.976 182.242 180.315 181.8 179.757 181.243C179.2 180.685 178.758 180.024 178.457 179.296C178.155 178.568 178 177.788 178 177H179.323C179.323 177.614 179.444 178.222 179.679 178.79C179.914 179.357 180.258 179.873 180.693 180.307C181.127 180.742 181.643 181.086 182.21 181.321C182.778 181.556 183.386 181.677 184 181.677C184.614 181.677 185.222 181.556 185.79 181.321C186.357 181.086 186.873 180.742 187.307 180.307C187.742 179.873 188.086 179.357 188.321 178.79C188.556 178.222 188.677 177.614 188.677 177H190Z" fill="#C5C5C5"/>
<rect x="167" y="188" width="12" height="2" fill="#C5C5C5"/>
<path d="M64.036 299V289.2H65.212V293.638L69.3 289.2H70.784L67.144 293.106L70.84 299H69.412L66.304 294.016L65.212 295.178V299H64.036ZM75.2716 299.168C74.6089 299.168 74.0209 299.019 73.5076 298.72C72.9943 298.412 72.5883 297.987 72.2896 297.446C72.0003 296.905 71.8556 296.265 71.8556 295.528C71.8556 294.8 72.0003 294.165 72.2896 293.624C72.5789 293.073 72.9803 292.649 73.4936 292.35C74.0163 292.042 74.6183 291.888 75.2996 291.888C75.9716 291.888 76.5503 292.042 77.0356 292.35C77.5303 292.649 77.9083 293.045 78.1696 293.54C78.4309 294.035 78.5616 294.567 78.5616 295.136C78.5616 295.239 78.5569 295.341 78.5476 295.444C78.5476 295.547 78.5476 295.663 78.5476 295.794H73.0176C73.0456 296.326 73.1669 296.769 73.3816 297.124C73.6056 297.469 73.8809 297.731 74.2076 297.908C74.5436 298.085 74.8983 298.174 75.2716 298.174C75.7569 298.174 76.1629 298.062 76.4896 297.838C76.8163 297.614 77.0543 297.311 77.2036 296.928H78.3656C78.1789 297.572 77.8196 298.109 77.2876 298.538C76.7649 298.958 76.0929 299.168 75.2716 299.168ZM75.2716 292.882C74.7116 292.882 74.2123 293.055 73.7736 293.4C73.3443 293.736 73.0969 294.231 73.0316 294.884H77.3996C77.3716 294.259 77.1569 293.769 76.7556 293.414C76.3543 293.059 75.8596 292.882 75.2716 292.882ZM80.6203 299V292.056H81.6843L81.7823 293.386C81.997 292.929 82.3236 292.565 82.7623 292.294C83.201 292.023 83.7423 291.888 84.3863 291.888V293.12H84.0643C83.6536 293.12 83.2756 293.195 82.9303 293.344C82.585 293.484 82.3096 293.727 82.1043 294.072C81.899 294.417 81.7963 294.893 81.7963 295.5V299H80.6203ZM88.5162 299.168C87.9376 299.168 87.4569 299.07 87.0742 298.874C86.6916 298.678 86.4069 298.417 86.2202 298.09C86.0336 297.763 85.9402 297.409 85.9402 297.026C85.9402 296.317 86.2109 295.771 86.7522 295.388C87.2936 295.005 88.0309 294.814 88.9642 294.814H90.8402V294.73C90.8402 294.123 90.6816 293.666 90.3642 293.358C90.0469 293.041 89.6222 292.882 89.0902 292.882C88.6329 292.882 88.2362 292.999 87.9002 293.232C87.5736 293.456 87.3682 293.787 87.2842 294.226H86.0802C86.1269 293.722 86.2949 293.297 86.5842 292.952C86.8829 292.607 87.2516 292.345 87.6902 292.168C88.1289 291.981 88.5956 291.888 89.0902 291.888C90.0609 291.888 90.7889 292.149 91.2742 292.672C91.7689 293.185 92.0162 293.871 92.0162 294.73V299H90.9662L90.8962 297.754C90.7002 298.146 90.4109 298.482 90.0282 298.762C89.6549 299.033 89.1509 299.168 88.5162 299.168ZM88.6982 298.174C89.1462 298.174 89.5289 298.057 89.8462 297.824C90.1729 297.591 90.4202 297.287 90.5882 296.914C90.7562 296.541 90.8402 296.149 90.8402 295.738V295.724H89.0622C88.3716 295.724 87.8816 295.845 87.5922 296.088C87.3122 296.321 87.1722 296.615 87.1722 296.97C87.1722 297.334 87.3029 297.628 87.5642 297.852C87.8349 298.067 88.2129 298.174 88.6982 298.174ZM94.2805 299V292.056H95.3445L95.4145 293.302C95.6385 292.863 95.9605 292.518 96.3805 292.266C96.8005 292.014 97.2765 291.888 97.8085 291.888C98.6298 291.888 99.2831 292.14 99.7685 292.644C100.263 293.139 100.51 293.904 100.51 294.94V299H99.3345V295.066C99.3345 293.619 98.7371 292.896 97.5425 292.896C96.9451 292.896 96.4458 293.115 96.0445 293.554C95.6525 293.983 95.4565 294.599 95.4565 295.402V299H94.2805ZM103.562 290.516C103.338 290.516 103.147 290.441 102.988 290.292C102.83 290.133 102.75 289.937 102.75 289.704C102.75 289.48 102.83 289.293 102.988 289.144C103.147 288.995 103.338 288.92 103.562 288.92C103.786 288.92 103.973 288.995 104.122 289.144C104.281 289.293 104.36 289.48 104.36 289.704C104.36 289.937 104.281 290.133 104.122 290.292C103.973 290.441 103.786 290.516 103.562 290.516ZM101.434 302.08V301.072H101.98C102.326 301.072 102.573 300.997 102.722 300.848C102.881 300.708 102.96 300.465 102.96 300.12V292.056H104.136V300.148C104.136 300.82 103.968 301.31 103.632 301.618C103.296 301.926 102.806 302.08 102.162 302.08H101.434ZM108.993 299.168C108.414 299.168 107.933 299.07 107.551 298.874C107.168 298.678 106.883 298.417 106.697 298.09C106.51 297.763 106.417 297.409 106.417 297.026C106.417 296.317 106.687 295.771 107.229 295.388C107.77 295.005 108.507 294.814 109.441 294.814H111.317V294.73C111.317 294.123 111.158 293.666 110.841 293.358C110.523 293.041 110.099 292.882 109.567 292.882C109.109 292.882 108.713 292.999 108.377 293.232C108.05 293.456 107.845 293.787 107.761 294.226H106.557C106.603 293.722 106.771 293.297 107.061 292.952C107.359 292.607 107.728 292.345 108.167 292.168C108.605 291.981 109.072 291.888 109.567 291.888C110.537 291.888 111.265 292.149 111.751 292.672C112.245 293.185 112.493 293.871 112.493 294.73V299H111.443L111.373 297.754C111.177 298.146 110.887 298.482 110.505 298.762C110.131 299.033 109.627 299.168 108.993 299.168ZM109.175 298.174C109.623 298.174 110.005 298.057 110.323 297.824C110.649 297.591 110.897 297.287 111.065 296.914C111.233 296.541 111.317 296.149 111.317 295.738V295.724H109.539C108.848 295.724 108.358 295.845 108.069 296.088C107.789 296.321 107.649 296.615 107.649 296.97C107.649 297.334 107.779 297.628 108.041 297.852C108.311 298.067 108.689 298.174 109.175 298.174ZM114.757 299V292.056H115.821L115.891 293.302C116.115 292.863 116.437 292.518 116.857 292.266C117.277 292.014 117.753 291.888 118.285 291.888C119.106 291.888 119.76 292.14 120.245 292.644C120.74 293.139 120.987 293.904 120.987 294.94V299H119.811V295.066C119.811 293.619 119.214 292.896 118.019 292.896C117.422 292.896 116.922 293.115 116.521 293.554C116.129 293.983 115.933 294.599 115.933 295.402V299H114.757ZM126.013 296.816C125.621 296.816 125.261 296.765 124.935 296.662L124.235 297.32C124.337 297.395 124.463 297.46 124.613 297.516C124.771 297.563 124.995 297.609 125.285 297.656C125.574 297.693 125.98 297.735 126.503 297.782C127.436 297.847 128.103 298.062 128.505 298.426C128.906 298.79 129.107 299.266 129.107 299.854C129.107 300.255 128.995 300.638 128.771 301.002C128.556 301.366 128.22 301.665 127.763 301.898C127.315 302.131 126.736 302.248 126.027 302.248C125.401 302.248 124.846 302.164 124.361 301.996C123.875 301.837 123.497 301.59 123.227 301.254C122.956 300.927 122.821 300.512 122.821 300.008C122.821 299.747 122.891 299.462 123.031 299.154C123.171 298.855 123.432 298.571 123.815 298.3C123.609 298.216 123.432 298.127 123.283 298.034C123.143 297.931 123.012 297.819 122.891 297.698V297.376L124.081 296.2C123.53 295.733 123.255 295.117 123.255 294.352C123.255 293.895 123.362 293.479 123.577 293.106C123.791 292.733 124.104 292.439 124.515 292.224C124.925 292 125.425 291.888 126.013 291.888C126.414 291.888 126.778 291.944 127.105 292.056H129.667V292.938L128.365 292.994C128.635 293.386 128.771 293.839 128.771 294.352C128.771 294.809 128.659 295.225 128.435 295.598C128.22 295.971 127.907 296.27 127.497 296.494C127.095 296.709 126.601 296.816 126.013 296.816ZM126.013 295.85C126.507 295.85 126.899 295.724 127.189 295.472C127.487 295.211 127.637 294.837 127.637 294.352C127.637 293.876 127.487 293.512 127.189 293.26C126.899 292.999 126.507 292.868 126.013 292.868C125.509 292.868 125.107 292.999 124.809 293.26C124.519 293.512 124.375 293.876 124.375 294.352C124.375 294.837 124.519 295.211 124.809 295.472C125.107 295.724 125.509 295.85 126.013 295.85ZM123.969 299.896C123.969 300.363 124.165 300.708 124.557 300.932C124.949 301.165 125.439 301.282 126.027 301.282C126.605 301.282 127.067 301.156 127.413 300.904C127.767 300.652 127.945 300.316 127.945 299.896C127.945 299.597 127.823 299.336 127.581 299.112C127.338 298.897 126.89 298.771 126.237 298.734C125.723 298.697 125.28 298.65 124.907 298.594C124.524 298.799 124.272 299.019 124.151 299.252C124.029 299.495 123.969 299.709 123.969 299.896ZM135.698 299V288.92H136.874V294.982L139.716 292.056H141.158L138.078 295.192L141.55 299H140.052L136.874 295.402V299H135.698ZM145.508 299.168C144.93 299.168 144.449 299.07 144.066 298.874C143.684 298.678 143.399 298.417 143.212 298.09C143.026 297.763 142.932 297.409 142.932 297.026C142.932 296.317 143.203 295.771 143.744 295.388C144.286 295.005 145.023 294.814 145.956 294.814H147.832V294.73C147.832 294.123 147.674 293.666 147.356 293.358C147.039 293.041 146.614 292.882 146.082 292.882C145.625 292.882 145.228 292.999 144.892 293.232C144.566 293.456 144.36 293.787 144.276 294.226H143.072C143.119 293.722 143.287 293.297 143.576 292.952C143.875 292.607 144.244 292.345 144.682 292.168C145.121 291.981 145.588 291.888 146.082 291.888C147.053 291.888 147.781 292.149 148.266 292.672C148.761 293.185 149.008 293.871 149.008 294.73V299H147.958L147.888 297.754C147.692 298.146 147.403 298.482 147.02 298.762C146.647 299.033 146.143 299.168 145.508 299.168ZM145.69 298.174C146.138 298.174 146.521 298.057 146.838 297.824C147.165 297.591 147.412 297.287 147.58 296.914C147.748 296.541 147.832 296.149 147.832 295.738V295.724H146.054C145.364 295.724 144.874 295.845 144.584 296.088C144.304 296.321 144.164 296.615 144.164 296.97C144.164 297.334 144.295 297.628 144.556 297.852C144.827 298.067 145.205 298.174 145.69 298.174ZM151.273 299V292.056H152.337L152.421 293.064C152.645 292.691 152.943 292.401 153.317 292.196C153.69 291.991 154.11 291.888 154.577 291.888C155.127 291.888 155.599 292 155.991 292.224C156.392 292.448 156.7 292.789 156.915 293.246C157.157 292.826 157.489 292.495 157.909 292.252C158.338 292.009 158.8 291.888 159.295 291.888C160.125 291.888 160.788 292.14 161.283 292.644C161.777 293.139 162.025 293.904 162.025 294.94V299H160.863V295.066C160.863 294.347 160.718 293.806 160.429 293.442C160.139 293.078 159.724 292.896 159.183 292.896C158.623 292.896 158.156 293.115 157.783 293.554C157.419 293.983 157.237 294.599 157.237 295.402V299H156.061V295.066C156.061 294.347 155.916 293.806 155.627 293.442C155.337 293.078 154.922 292.896 154.381 292.896C153.83 292.896 153.368 293.115 152.995 293.554C152.631 293.983 152.449 294.599 152.449 295.402V299H151.273ZM166.83 299.168C166.009 299.168 165.355 298.921 164.87 298.426C164.385 297.922 164.142 297.152 164.142 296.116V292.056H165.318V295.99C165.318 297.437 165.911 298.16 167.096 298.16C167.703 298.16 168.202 297.945 168.594 297.516C168.995 297.077 169.196 296.457 169.196 295.654V292.056H170.372V299H169.308L169.224 297.754C169.009 298.193 168.687 298.538 168.258 298.79C167.838 299.042 167.362 299.168 166.83 299.168ZM177.013 299V292.056H178.077L178.161 293.064C178.385 292.691 178.684 292.401 179.057 292.196C179.43 291.991 179.85 291.888 180.317 291.888C180.868 291.888 181.339 292 181.731 292.224C182.132 292.448 182.44 292.789 182.655 293.246C182.898 292.826 183.229 292.495 183.649 292.252C184.078 292.009 184.54 291.888 185.035 291.888C185.866 291.888 186.528 292.14 187.023 292.644C187.518 293.139 187.765 293.904 187.765 294.94V299H186.603V295.066C186.603 294.347 186.458 293.806 186.169 293.442C185.88 293.078 185.464 292.896 184.923 292.896C184.363 292.896 183.896 293.115 183.523 293.554C183.159 293.983 182.977 294.599 182.977 295.402V299H181.801V295.066C181.801 294.347 181.656 293.806 181.367 293.442C181.078 293.078 180.662 292.896 180.121 292.896C179.57 292.896 179.108 293.115 178.735 293.554C178.371 293.983 178.189 294.599 178.189 295.402V299H177.013ZM192.346 299.168C191.768 299.168 191.287 299.07 190.904 298.874C190.522 298.678 190.237 298.417 190.05 298.09C189.864 297.763 189.77 297.409 189.77 297.026C189.77 296.317 190.041 295.771 190.582 295.388C191.124 295.005 191.861 294.814 192.794 294.814H194.67V294.73C194.67 294.123 194.512 293.666 194.194 293.358C193.877 293.041 193.452 292.882 192.92 292.882C192.463 292.882 192.066 292.999 191.73 293.232C191.404 293.456 191.198 293.787 191.114 294.226H189.91C189.957 293.722 190.125 293.297 190.414 292.952C190.713 292.607 191.082 292.345 191.52 292.168C191.959 291.981 192.426 291.888 192.92 291.888C193.891 291.888 194.619 292.149 195.104 292.672C195.599 293.185 195.846 293.871 195.846 294.73V299H194.796L194.726 297.754C194.53 298.146 194.241 298.482 193.858 298.762C193.485 299.033 192.981 299.168 192.346 299.168ZM192.528 298.174C192.976 298.174 193.359 298.057 193.676 297.824C194.003 297.591 194.25 297.287 194.418 296.914C194.586 296.541 194.67 296.149 194.67 295.738V295.724H192.892C192.202 295.724 191.712 295.845 191.422 296.088C191.142 296.321 191.002 296.615 191.002 296.97C191.002 297.334 191.133 297.628 191.394 297.852C191.665 298.067 192.043 298.174 192.528 298.174ZM200.771 299.168C199.94 299.168 199.249 298.958 198.699 298.538C198.148 298.118 197.826 297.549 197.733 296.83H198.937C199.011 297.194 199.203 297.511 199.511 297.782C199.828 298.043 200.253 298.174 200.785 298.174C201.279 298.174 201.643 298.071 201.877 297.866C202.11 297.651 202.227 297.399 202.227 297.11C202.227 296.69 202.073 296.41 201.765 296.27C201.466 296.13 201.041 296.004 200.491 295.892C200.117 295.817 199.744 295.71 199.371 295.57C198.997 295.43 198.685 295.234 198.433 294.982C198.181 294.721 198.055 294.38 198.055 293.96C198.055 293.353 198.279 292.859 198.727 292.476C199.184 292.084 199.8 291.888 200.575 291.888C201.312 291.888 201.914 292.075 202.381 292.448C202.857 292.812 203.132 293.335 203.207 294.016H202.045C201.998 293.661 201.844 293.386 201.583 293.19C201.331 292.985 200.99 292.882 200.561 292.882C200.141 292.882 199.814 292.971 199.581 293.148C199.357 293.325 199.245 293.559 199.245 293.848C199.245 294.128 199.389 294.347 199.679 294.506C199.977 294.665 200.379 294.8 200.883 294.912C201.312 295.005 201.718 295.122 202.101 295.262C202.493 295.393 202.81 295.593 203.053 295.864C203.305 296.125 203.431 296.508 203.431 297.012C203.44 297.637 203.202 298.155 202.717 298.566C202.241 298.967 201.592 299.168 200.771 299.168ZM206.325 290.516C206.091 290.516 205.895 290.441 205.737 290.292C205.587 290.133 205.513 289.937 205.513 289.704C205.513 289.48 205.587 289.293 205.737 289.144C205.895 288.995 206.091 288.92 206.325 288.92C206.549 288.92 206.74 288.995 206.899 289.144C207.057 289.293 207.137 289.48 207.137 289.704C207.137 289.937 207.057 290.133 206.899 290.292C206.74 290.441 206.549 290.516 206.325 290.516ZM205.737 299V292.056H206.913V299H205.737ZM209.46 299V288.92H210.636V293.246C210.869 292.817 211.201 292.485 211.63 292.252C212.059 292.009 212.526 291.888 213.03 291.888C213.833 291.888 214.477 292.14 214.962 292.644C215.447 293.139 215.69 293.904 215.69 294.94V299H214.528V295.066C214.528 293.619 213.945 292.896 212.778 292.896C212.171 292.896 211.663 293.115 211.252 293.554C210.841 293.983 210.636 294.599 210.636 295.402V299H209.46ZM222.177 299V288.92H223.353V294.982L226.195 292.056H227.637L224.557 295.192L228.029 299H226.531L223.353 295.402V299H222.177ZM232.39 299.168C231.736 299.168 231.148 299.019 230.626 298.72C230.103 298.421 229.688 298.001 229.38 297.46C229.081 296.909 228.932 296.265 228.932 295.528C228.932 294.791 229.086 294.151 229.394 293.61C229.702 293.059 230.117 292.635 230.64 292.336C231.172 292.037 231.764 291.888 232.418 291.888C233.071 291.888 233.659 292.037 234.182 292.336C234.704 292.635 235.115 293.059 235.414 293.61C235.722 294.151 235.876 294.791 235.876 295.528C235.876 296.265 235.722 296.909 235.414 297.46C235.106 298.001 234.686 298.421 234.154 298.72C233.631 299.019 233.043 299.168 232.39 299.168ZM232.39 298.16C232.791 298.16 233.164 298.062 233.51 297.866C233.855 297.67 234.135 297.376 234.35 296.984C234.564 296.592 234.672 296.107 234.672 295.528C234.672 294.949 234.564 294.464 234.35 294.072C234.144 293.68 233.869 293.386 233.524 293.19C233.178 292.994 232.81 292.896 232.418 292.896C232.016 292.896 231.643 292.994 231.298 293.19C230.952 293.386 230.672 293.68 230.458 294.072C230.243 294.464 230.136 294.949 230.136 295.528C230.136 296.107 230.243 296.592 230.458 296.984C230.672 297.376 230.948 297.67 231.284 297.866C231.629 298.062 231.998 298.16 232.39 298.16ZM240.671 299.168C239.84 299.168 239.15 298.958 238.599 298.538C238.048 298.118 237.726 297.549 237.633 296.83H238.837C238.912 297.194 239.103 297.511 239.411 297.782C239.728 298.043 240.153 298.174 240.685 298.174C241.18 298.174 241.544 298.071 241.777 297.866C242.01 297.651 242.127 297.399 242.127 297.11C242.127 296.69 241.973 296.41 241.665 296.27C241.366 296.13 240.942 296.004 240.391 295.892C240.018 295.817 239.644 295.71 239.271 295.57C238.898 295.43 238.585 295.234 238.333 294.982C238.081 294.721 237.955 294.38 237.955 293.96C237.955 293.353 238.179 292.859 238.627 292.476C239.084 292.084 239.7 291.888 240.475 291.888C241.212 291.888 241.814 292.075 242.281 292.448C242.757 292.812 243.032 293.335 243.107 294.016H241.945C241.898 293.661 241.744 293.386 241.483 293.19C241.231 292.985 240.89 292.882 240.461 292.882C240.041 292.882 239.714 292.971 239.481 293.148C239.257 293.325 239.145 293.559 239.145 293.848C239.145 294.128 239.29 294.347 239.579 294.506C239.878 294.665 240.279 294.8 240.783 294.912C241.212 295.005 241.618 295.122 242.001 295.262C242.393 295.393 242.71 295.593 242.953 295.864C243.205 296.125 243.331 296.508 243.331 297.012C243.34 297.637 243.102 298.155 242.617 298.566C242.141 298.967 241.492 299.168 240.671 299.168ZM248.675 299.168C248.022 299.168 247.434 299.019 246.911 298.72C246.388 298.421 245.973 298.001 245.665 297.46C245.366 296.909 245.217 296.265 245.217 295.528C245.217 294.791 245.371 294.151 245.679 293.61C245.987 293.059 246.402 292.635 246.925 292.336C247.457 292.037 248.05 291.888 248.703 291.888C249.356 291.888 249.944 292.037 250.467 292.336C250.99 292.635 251.4 293.059 251.699 293.61C252.007 294.151 252.161 294.791 252.161 295.528C252.161 296.265 252.007 296.909 251.699 297.46C251.391 298.001 250.971 298.421 250.439 298.72C249.916 299.019 249.328 299.168 248.675 299.168ZM248.675 298.16C249.076 298.16 249.45 298.062 249.795 297.866C250.14 297.67 250.42 297.376 250.635 296.984C250.85 296.592 250.957 296.107 250.957 295.528C250.957 294.949 250.85 294.464 250.635 294.072C250.43 293.68 250.154 293.386 249.809 293.19C249.464 292.994 249.095 292.896 248.703 292.896C248.302 292.896 247.928 292.994 247.583 293.19C247.238 293.386 246.958 293.68 246.743 294.072C246.528 294.464 246.421 294.949 246.421 295.528C246.421 296.107 246.528 296.592 246.743 296.984C246.958 297.376 247.233 297.67 247.569 297.866C247.914 298.062 248.283 298.16 248.675 298.16ZM254.296 299V292.056H255.36L255.43 293.302C255.654 292.863 255.976 292.518 256.396 292.266C256.816 292.014 257.292 291.888 257.824 291.888C258.645 291.888 259.299 292.14 259.784 292.644C260.279 293.139 260.526 293.904 260.526 294.94V299H259.35V295.066C259.35 293.619 258.753 292.896 257.558 292.896C256.961 292.896 256.461 293.115 256.06 293.554C255.668 293.983 255.472 294.599 255.472 295.402V299H254.296ZM265.552 296.816C265.16 296.816 264.8 296.765 264.474 296.662L263.774 297.32C263.876 297.395 264.002 297.46 264.152 297.516C264.31 297.563 264.534 297.609 264.824 297.656C265.113 297.693 265.519 297.735 266.042 297.782C266.975 297.847 267.642 298.062 268.044 298.426C268.445 298.79 268.646 299.266 268.646 299.854C268.646 300.255 268.534 300.638 268.31 301.002C268.095 301.366 267.759 301.665 267.302 301.898C266.854 302.131 266.275 302.248 265.566 302.248C264.94 302.248 264.385 302.164 263.9 301.996C263.414 301.837 263.036 301.59 262.766 301.254C262.495 300.927 262.36 300.512 262.36 300.008C262.36 299.747 262.43 299.462 262.57 299.154C262.71 298.855 262.971 298.571 263.354 298.3C263.148 298.216 262.971 298.127 262.822 298.034C262.682 297.931 262.551 297.819 262.43 297.698V297.376L263.62 296.2C263.069 295.733 262.794 295.117 262.794 294.352C262.794 293.895 262.901 293.479 263.116 293.106C263.33 292.733 263.643 292.439 264.054 292.224C264.464 292 264.964 291.888 265.552 291.888C265.953 291.888 266.317 291.944 266.644 292.056H269.206V292.938L267.904 292.994C268.174 293.386 268.31 293.839 268.31 294.352C268.31 294.809 268.198 295.225 267.974 295.598C267.759 295.971 267.446 296.27 267.036 296.494C266.634 296.709 266.14 296.816 265.552 296.816ZM265.552 295.85C266.046 295.85 266.438 295.724 266.728 295.472C267.026 295.211 267.176 294.837 267.176 294.352C267.176 293.876 267.026 293.512 266.728 293.26C266.438 292.999 266.046 292.868 265.552 292.868C265.048 292.868 264.646 292.999 264.348 293.26C264.058 293.512 263.914 293.876 263.914 294.352C263.914 294.837 264.058 295.211 264.348 295.472C264.646 295.724 265.048 295.85 265.552 295.85ZM263.508 299.896C263.508 300.363 263.704 300.708 264.096 300.932C264.488 301.165 264.978 301.282 265.566 301.282C266.144 301.282 266.606 301.156 266.952 300.904C267.306 300.652 267.484 300.316 267.484 299.896C267.484 299.597 267.362 299.336 267.12 299.112C266.877 298.897 266.429 298.771 265.776 298.734C265.262 298.697 264.819 298.65 264.446 298.594C264.063 298.799 263.811 299.019 263.69 299.252C263.568 299.495 263.508 299.709 263.508 299.896Z" fill="#C4C4C4"/>
</svg>
