<svg width="334" height="334" viewBox="0 0 334 334" fill="none" xmlns="http://www.w3.org/2000/svg">
<circle cx="184.112" cy="155.899" r="86" fill="#F1F1F1"/>
<path d="M175.855 257.713L65.8697 194.213C65.1523 193.799 64.9065 192.882 65.3207 192.164L72.5707 179.607C72.9849 178.89 73.9023 178.644 74.6197 179.058L75.9188 179.808C80.9409 182.708 87.3626 180.987 90.2621 175.965L111.762 138.726C123.498 118.398 149.491 111.434 169.818 123.17L170.068 122.737L170.501 122.987L172.876 118.873C175.983 113.492 182.863 111.649 188.244 114.755C193.625 117.862 195.468 124.742 192.362 130.123L189.987 134.237L190.42 134.487L190.17 134.92C208.584 145.551 214.893 169.097 204.262 187.512L180.762 228.215C177.862 233.237 179.583 239.659 184.605 242.558C185.322 242.972 185.568 243.89 185.154 244.607L177.904 257.164C177.49 257.882 176.572 258.128 175.855 257.713Z" fill="#DDDDDD" stroke="black"/>
<mask id="path-3-inside-1_354_30936" fill="white">
<path d="M128.206 234.245C126.084 237.92 125.509 242.287 126.607 246.386C127.706 250.485 130.387 253.979 134.062 256.101C137.737 258.223 142.104 258.798 146.203 257.699C150.302 256.601 153.797 253.92 155.918 250.245L142.062 242.245L128.206 234.245Z"/>
</mask>
<path d="M128.206 234.245C126.084 237.92 125.509 242.287 126.607 246.386C127.706 250.485 130.387 253.979 134.062 256.101C137.737 258.223 142.104 258.798 146.203 257.699C150.302 256.601 153.797 253.92 155.918 250.245L142.062 242.245L128.206 234.245Z" fill="#CCCCCC" stroke="black" stroke-width="2" mask="url(#path-3-inside-1_354_30936)"/>
<circle cx="124.612" cy="93.3991" r="6.5" fill="#CCCCCC"/>
<circle cx="229.612" cy="174.399" r="6" fill="#CCCCCC" stroke="black"/>
<circle cx="81.6124" cy="158.399" r="6" stroke="black"/>
</svg>
