<svg width="399" height="305" viewBox="0 0 399 305" fill="none" xmlns="http://www.w3.org/2000/svg">
<path d="M158.207 98.2973C158.207 98.2973 144.293 96.4504 141.497 108.041C138.702 119.632 138.303 135.697 127.12 138.913C115.938 142.129 109.748 119.807 109.748 119.807C109.748 119.807 107.152 113.55 104.357 112.698C101.561 111.847 99.5647 118.016 104.357 121.798C104.357 121.798 108.391 150.257 129.836 149.262C151.282 148.267 158.207 118.948 158.207 98.2973Z" fill="#F4A28C"/>
<path opacity="0.08" d="M158.207 98.2973C158.207 98.2973 144.293 96.4504 141.497 108.041C138.702 119.632 138.303 135.697 127.12 138.913C115.938 142.129 109.748 119.807 109.748 119.807C109.748 119.807 107.152 113.55 104.357 112.698C101.561 111.847 99.5647 118.016 104.357 121.798C104.357 121.798 108.391 150.257 129.836 149.262C151.282 148.267 158.207 118.948 158.207 98.2973Z" fill="black"/>
<path opacity="0.45" d="M227.743 236.885C295.861 236.885 351.082 229.508 351.082 220.407C351.082 211.306 295.861 203.928 227.743 203.928C159.626 203.928 104.405 211.306 104.405 220.407C104.405 229.508 159.626 236.885 227.743 236.885Z" fill="#E6E6E6"/>
<path d="M291.305 55.2285H200.147V218.178H291.305V55.2285Z" fill="#C9C9C9"/>
<path d="M283.142 73.8027H207.688V188.478H283.142V73.8027Z" fill="white"/>
<path opacity="0.56" d="M246.002 212.056C250.929 212.056 254.923 208.075 254.923 203.164C254.923 198.253 250.929 194.271 246.002 194.271C241.074 194.271 237.08 198.253 237.08 203.164C237.08 208.075 241.074 212.056 246.002 212.056Z" fill="white"/>
<path opacity="0.12" d="M263.574 61.5977H238.015V65.3153H263.574V61.5977Z" fill="black"/>
<path d="M228.758 68.0061C231.056 68.0061 232.919 66.1491 232.919 63.8585C232.919 61.5679 231.056 59.7109 228.758 59.7109C226.46 59.7109 224.597 61.5679 224.597 63.8585C224.597 66.1491 226.46 68.0061 228.758 68.0061Z" fill="white"/>
<path d="M158.207 77.6621C158.207 77.6621 149.03 88.4331 156.362 92.3179C167.121 98.0178 168.431 78.3149 168.431 78.3149L158.207 77.6621Z" fill="#24285B"/>
<path d="M158.926 78.7297C158.926 78.7297 157.009 82.7818 156.681 85.8228C156.649 86.1175 156.677 86.4155 156.761 86.6997C156.846 86.9838 156.986 87.2484 157.174 87.478C157.362 87.7076 157.594 87.8977 157.856 88.0372C158.119 88.1767 158.406 88.2629 158.702 88.2907C159.648 88.4438 160.619 88.3217 161.497 87.9391C162.375 87.5564 163.124 86.9294 163.654 86.1333L166.274 82.949C166.73 82.2523 166.958 81.4318 166.927 80.6006C166.895 79.7693 166.606 78.9682 166.098 78.3078C164.357 75.7126 159.964 76.2062 158.926 78.7297Z" fill="#F4A28C"/>
<path d="M165.284 83.666L166.338 98.2979H158.207L160.643 87.925L165.284 83.666Z" fill="#F4A28C"/>
<path d="M157.847 81.3398L156.074 82.526C155.972 82.5907 155.888 82.68 155.829 82.7858C155.771 82.8916 155.74 83.0103 155.74 83.131C155.74 83.2517 155.771 83.3705 155.829 83.4763C155.888 83.582 155.972 83.6714 156.074 83.736L157.568 84.6356L157.847 81.3398Z" fill="#F4A28C"/>
<path opacity="0.31" d="M160.579 88.2189C161.559 88.0435 162.473 87.606 163.223 86.9531C163.223 86.9531 163.75 90.1374 159.876 91.1883L160.579 88.2189Z" fill="#CE8172"/>
<path d="M162.632 83.4892C162.632 83.4892 163.263 81.897 164.437 82.4543C165.611 83.0115 164.708 85.352 162.975 84.9619L162.632 83.4892Z" fill="#F4A28C"/>
<path d="M143.526 181.607L136.649 212.758H140.643L154.03 181.607H143.526Z" fill="#F4A28C"/>
<path d="M165.898 177.825L173.231 212.757H177.248L176.641 177.578L165.898 177.825Z" fill="#F4A28C"/>
<path d="M136.649 212.758C136.649 212.758 134.429 215.56 131.586 215.425C128.742 215.289 128.335 219.286 132.895 218.872C134.316 218.75 135.724 218.51 137.105 218.155C138.38 217.858 139.712 217.904 140.963 218.291C141.207 218.344 141.461 218.324 141.693 218.232C141.926 218.139 142.125 217.98 142.264 217.773C143.558 216.253 140.372 212.758 140.372 212.758H136.649Z" fill="#008BE1"/>
<path d="M176.953 212.758C176.953 212.758 179.173 215.56 182.017 215.425C184.86 215.289 185.276 219.286 180.707 218.872C179.286 218.75 177.878 218.51 176.498 218.155C175.222 217.858 173.891 217.904 172.64 218.291C172.396 218.344 172.141 218.324 171.909 218.232C171.677 218.139 171.478 217.98 171.338 217.773C170.044 216.253 173.231 212.758 173.231 212.758H176.953Z" fill="#008BE1"/>
<path opacity="0.12" d="M267.439 115.5H224.572V163.631H267.439V115.5Z" fill="black"/>
<path d="M259.364 168.885H232.096V180.515H259.364V168.885Z" fill="#FE3A30"/>
<path d="M256.785 127.243L251.194 125.516C250.722 129.966 246.138 129.918 246.138 129.918C246.138 129.918 241.545 129.966 241.074 125.516L235.483 127.243L228.694 134.472L233.486 140.044L237.48 136.963L238.518 150.934H253.694L254.732 136.963L258.726 140.044L263.518 134.472L256.785 127.243Z" fill="white"/>
<path opacity="0.15" d="M200.348 103.281V110.701C200.348 110.701 205.316 113.089 212.289 110.127C219.261 107.166 222.672 113.439 231.41 110.127C240.148 106.816 242.592 114.052 252.216 111.457C261.841 108.862 264.892 107.914 270.116 110.756C275.339 113.598 286.889 111.242 291.306 107.843V98.2898L278.526 89.127H211.242L200.348 103.281Z" fill="#2C2C3A"/>
<path d="M207.743 73.8027L193.718 94.652H298.286L283.318 73.8027H207.743Z" fill="#24285B"/>
<path d="M201.186 102.94C205.315 102.94 208.654 99.2298 208.654 94.6523H193.718C193.718 99.2298 197.064 102.94 201.186 102.94Z" fill="#24285B"/>
<path d="M216.13 102.94C220.251 102.94 223.598 99.2298 223.598 94.6523H208.638C208.638 99.2298 212 102.94 216.13 102.94Z" fill="#FAFAFA"/>
<path d="M231.066 102.94C235.187 102.94 238.534 99.2298 238.534 94.6523H223.598C223.598 99.2298 226.936 102.94 231.066 102.94Z" fill="#24285B"/>
<path d="M246.002 102.94C250.132 102.94 253.47 99.2298 253.47 94.6523H238.534C238.534 99.2298 241.881 102.94 246.002 102.94Z" fill="#FAFAFA"/>
<path d="M260.946 102.94C265.068 102.94 268.414 99.2298 268.414 94.6523H253.47C253.47 99.2298 256.817 102.94 260.946 102.94Z" fill="#24285B"/>
<path d="M275.882 102.94C280.003 102.94 283.35 99.2298 283.35 94.6523H268.414C268.414 99.2298 271.737 102.94 275.882 102.94Z" fill="#FAFAFA"/>
<path d="M290.818 102.94C294.947 102.94 298.286 99.2298 298.286 94.6523H283.35C283.35 99.2298 286.697 102.94 290.818 102.94Z" fill="#24285B"/>
<path d="M208.654 94.652L217.089 73.8027H226.833L223.598 94.652H208.654Z" fill="#FAFAFA"/>
<path d="M283.326 94.652L274.9 73.8027H265.155L268.39 94.652H283.326Z" fill="#FAFAFA"/>
<path d="M238.534 94.652L239.269 73.8027H252.576L253.47 94.652H238.534Z" fill="#FAFAFA"/>
<path d="M159.461 72.3364C158.806 72.586 158.222 72.9913 157.76 73.5171C157.297 74.043 156.971 74.6734 156.809 75.3535C156.538 76.5875 156.761 78.0841 158.758 79.0951C162.752 81.1171 164.485 79.7797 164.149 82.359C163.814 84.9383 159.485 93.8544 168.407 93.2573C177.328 92.6603 174.397 87.3186 172.8 84.1502C171.202 80.9818 171.138 78.2672 170.539 76.1894C169.988 74.3186 165.435 69.98 159.461 72.3364Z" fill="#24285B"/>
<path d="M158.207 98.2969H166.306C166.306 98.2969 166.865 98.2969 167.823 98.2969C185.555 98.8621 195.858 118.493 186.441 133.484C181.202 141.818 174.948 153.051 174.533 159.754L142.927 158.162C142.927 158.162 145.323 137.727 139.469 126.048C139.501 126.064 128.766 107.683 158.207 98.2969Z" fill="#008BE1"/>
<path d="M160.068 154.085C160.02 153.727 158.99 145.129 165.068 141.436L165.483 142.112C159.844 145.543 160.851 153.902 160.859 153.99L160.068 154.085Z" fill="white"/>
<path opacity="0.08" d="M175.539 104.641C175.539 104.641 162.273 109.68 168.431 130.911C171.626 141.969 143.111 140.767 143.111 140.767C143.111 140.767 143.63 149.253 143.335 153.114L157.856 153.91L175.539 155.056L176.402 152.573L181.777 142.486L182.281 129.351L178.087 122.035L175.539 104.641Z" fill="black"/>
<path d="M170.132 154.088C170.084 153.73 168.95 144.861 175.172 141.51L175.539 142.115C169.908 145.546 170.907 153.905 170.923 153.992L170.132 154.088Z" fill="white"/>
<path d="M143.335 153.084L175.611 154.78L184.229 187.363L137.576 185.707L143.335 153.084Z" fill="#24285B"/>
<path d="M172.592 110.556C172.533 109.121 172.929 107.703 173.723 106.503C174.517 105.304 175.669 104.384 177.016 103.872C178.364 103.361 179.838 103.285 181.231 103.654C182.625 104.024 183.866 104.82 184.78 105.931C189.353 111.417 191.774 118.369 191.594 125.499C191.33 144.605 188.75 165.207 147.488 142.654L149.709 136.612C149.709 136.612 168.023 145.369 175.675 142.535C181.298 140.441 173.175 123.652 172.592 110.556Z" fill="#F4A28C"/>
<path d="M149.709 136.613C149.709 136.613 142.824 133.349 139.9 136.613C136.977 139.877 141.626 142.782 147.488 142.655L149.709 136.613Z" fill="#F4A28C"/>
<path d="M157.009 152.51L180.5 154.763L181.434 183.318L150.516 181.535L157.009 152.51Z" fill="#FE3A30"/>
<path opacity="0.08" d="M157.009 152.51L180.5 154.763L181.434 183.318L150.516 181.535L157.009 152.51Z" fill="black"/>
<path d="M162.176 153.004L183.67 155.114L187.32 183.613L156.41 181.838L162.176 153.004Z" fill="#FE3A30"/>
<path d="M110.173 100.778L100.707 103.842L106.134 120.499L115.6 117.436L110.173 100.778Z" fill="#FE3A30"/>
<path d="M167.991 155.933L167.32 155.503C167.32 155.431 171.873 148.338 169.181 142.829C168.756 142.189 168.102 141.733 167.352 141.556C166.991 141.517 166.626 141.556 166.281 141.67C165.937 141.784 165.621 141.97 165.355 142.216L164.612 141.81C164.98 141.432 165.43 141.142 165.926 140.962C166.423 140.781 166.954 140.715 167.48 140.768C168.47 140.99 169.331 141.594 169.876 142.447C172.783 148.394 168.183 155.63 167.991 155.933Z" fill="white"/>
<path d="M177.32 156.475L176.649 156.045C176.697 155.973 181.202 148.88 178.518 143.371C178.089 142.731 177.433 142.276 176.681 142.097C176.27 142.056 175.855 142.106 175.465 142.243C175.076 142.381 174.722 142.603 174.429 142.894L173.95 142.344C174.317 141.968 174.765 141.679 175.26 141.5C175.756 141.321 176.285 141.256 176.809 141.309C177.3 141.417 177.765 141.62 178.177 141.909C178.588 142.197 178.938 142.564 179.205 142.989C182.121 148.92 177.488 156.164 177.32 156.475Z" fill="white"/>
<path d="M94.3574 71.0312V86.9528H104.685L106.937 93.2896L109.605 86.9528H119.932V71.0312H94.3574Z" fill="#E6E6E6"/>
<path opacity="0.12" d="M105.851 82.5512C105.735 82.5472 105.621 82.518 105.518 82.4658C105.414 82.4135 105.324 82.3395 105.252 82.2487L102.52 78.7778C102.39 78.611 102.331 78.3995 102.358 78.1897C102.384 77.98 102.493 77.7892 102.66 77.6593C102.827 77.5295 103.04 77.4712 103.25 77.4973C103.461 77.5235 103.652 77.6318 103.782 77.7986L105.907 80.5212L111.138 74.885C111.21 74.8077 111.296 74.7453 111.392 74.7015C111.488 74.6576 111.592 74.6331 111.697 74.6294C111.803 74.6257 111.908 74.6429 112.007 74.6799C112.105 74.7169 112.196 74.7731 112.273 74.8452C112.427 74.989 112.518 75.1878 112.525 75.3982C112.533 75.6086 112.456 75.8133 112.313 75.9677L106.442 82.2885C106.367 82.371 106.276 82.437 106.174 82.4822C106.073 82.5275 105.962 82.551 105.851 82.5512Z" fill="black"/>
<path opacity="0.52" d="M256.169 170.764H244.452V174.696H256.169V170.764Z" fill="white"/>
<path opacity="0.55" d="M316.265 188.484H291.305V201.357H316.265V188.484Z" fill="#E6E6E6"/>
<path d="M328.446 201.357H291.305V218.179H328.446V201.357Z" fill="#E6E6E6"/>
</svg>
