<svg width="680" height="982" viewBox="0 0 680 982" fill="none" xmlns="http://www.w3.org/2000/svg">
<rect width="680" height="983" transform="translate(0 -1)" fill="white"/>
<path d="M523.557 234.756C521.038 227.767 518.234 220.827 515.163 214.08C509.046 200.653 507.641 187.928 499.047 176.7" stroke="#CCDDE2" stroke-width="4"/>
<path d="M479.13 163.83C471.735 156.308 464.819 148.222 452.252 142.184C425.695 129.466 391.736 128.176 348.391 146.163" stroke="#CCDDE2" stroke-width="4"/>
<path d="M166.159 656.772C124.158 597.401 110.573 530.278 117.593 461.629" stroke="#CCDDE2" stroke-width="4"/>
<path d="M547.188 364.497V365.229C546.776 378.553 559.089 433.788 594.01 451.333C628.931 468.879 653.829 545.892 575.096 576.107C496.363 606.323 500.651 656.772 500.651 656.772" stroke="#CCDDE2" stroke-width="4"/>
<path d="M348.384 203.19V137.938C348.361 128.606 340.801 121.046 331.469 121.023H115.376C106.044 121.046 98.4842 128.606 98.4609 137.938V444.756C98.4776 454.085 106.047 461.638 115.376 461.635H331.469C333.565 461.648 335.644 461.249 337.586 460.46" stroke="#333333" stroke-width="4" stroke-linecap="round" stroke-linejoin="round"/>
<rect x="106.047" y="131.361" width="234.746" height="319.966" rx="24.95" fill="#00BFFF"/>
<rect x="119.867" y="156.12" width="209.673" height="59.9099" rx="12.48" fill="#00BFFF"/>
<circle cx="223.422" cy="175.155" r="6.1957" fill="#D7E8F0"/>
<path d="M206.109 203.19C206.109 193.627 213.862 185.875 223.425 185.875C232.988 185.875 240.74 193.627 240.74 203.19H206.109Z" fill="#D7E8F0"/>
<path fill-rule="evenodd" clip-rule="evenodd" d="M224.682 280.222C211.174 280.214 198.992 288.347 193.819 300.825C188.647 313.303 191.502 327.669 201.054 337.22C210.605 346.772 224.971 349.627 237.449 344.454C249.927 339.282 258.06 327.1 258.052 313.592C258.042 295.166 243.108 280.232 224.682 280.222ZM224.682 338.914C221.991 338.914 219.809 336.733 219.809 334.042C219.809 331.351 221.991 329.17 224.682 329.17C227.372 329.17 229.554 331.351 229.554 334.042C229.554 336.733 227.372 338.914 224.682 338.914ZM230.425 304.461C230.571 303.423 230.717 302.39 230.865 301.365V301.389C230.934 300.845 231.027 300.277 231.122 299.696C231.659 296.429 232.262 292.756 228.915 290.833C225.741 289.034 220.248 289.458 218.316 292.892C216.58 295.91 217.615 300.48 218.464 304.224C218.701 305.273 218.924 306.257 219.067 307.124C219.875 312.572 221.044 317.96 222.568 323.252C223.113 324.924 226.286 324.924 226.807 323.252C228.632 317.218 229.542 310.746 230.425 304.461Z" fill="#D7E8F0"/>
<path d="M140.836 242.775H303.868" stroke="white" stroke-width="7.24"/>
<path d="M140.836 258.818H303.868" stroke="white" stroke-width="7.24"/>
<path d="M140.836 362.159H303.868" stroke="white" stroke-width="7.24"/>
<path d="M178.703 377.336H265.994" stroke="white" stroke-width="7.24"/>
<path d="M158.156 476.728C158.156 476.728 187.166 361.45 277.522 333.294L314.248 324.53C314.248 324.53 320.056 298.591 317.918 295.865C315.78 293.14 311.389 287.556 303.346 288.767C295.303 289.979 274.512 290.366 269.188 264.947C263.865 239.529 283.536 179.11 334.658 170.074C385.78 161.038 386.973 198.575 386.973 198.575L349.423 285.588L355.25 355.781L355.982 460.345L158.156 476.728Z" fill="white"/>
<mask id="mask0_1505_87324" style="mask-type:luminance" maskUnits="userSpaceOnUse" x="135" y="166" width="392" height="493">
<path fill-rule="evenodd" clip-rule="evenodd" d="M135.469 166.888H526.658V658.977H135.469V166.888Z" fill="white"/>
</mask>
<g mask="url(#mask0_1505_87324)">
<path d="M470.401 387.674C469.795 387.85 462.067 390.096 459.027 395.45C457.845 392.949 455.326 391.354 452.559 391.356H361.804C358.478 391.351 355.591 393.645 354.845 396.886L336.973 473.517C335.761 473.281 334.55 473.136 333.29 473.015L291.113 462.489C287.364 461.548 283.515 463.612 282.223 467.255C281.942 468.044 281.802 468.876 281.811 469.714C281.811 473.661 284.863 476.935 288.8 477.212L308.744 478.496C289.533 487.538 266.161 504.762 246.653 520.588C227.673 490.869 245.485 461.156 258.881 445.155C257.155 427.519 248.41 386.572 204.773 387.686C219.805 368.408 238.55 351.887 261.776 340.828C341.333 429.009 432.349 356.913 434.281 355.363C447.892 364.242 460.071 375.141 470.401 387.686" fill="#555555"/>
<path d="M462.131 640.638V655.876H199.398V634.291C209.634 634.896 220.402 632.474 230.195 628.059C242.593 622.414 253.3 613.644 262.458 603.639C271.875 593.283 277.048 578.923 283.049 566.435C292.061 547.63 303.999 534.233 322.943 528.558L321.732 533.767C321.239 535.891 321.741 538.123 323.096 539.832C324.451 541.54 326.51 542.538 328.69 542.542H419.9C418.083 558.289 410.422 644.29 462.131 640.656" fill="#555555"/>
<path d="M419.943 239.88C419.87 248.027 418.808 256.135 416.782 264.027C414.893 271.668 408.704 277.495 400.963 278.919C400.811 273.42 398.473 268.593 394.906 265.595C395.232 260.939 395.185 256.265 394.767 251.617C394.531 248.546 394.161 245.682 393.774 243.108C393.543 241.643 393.209 240.196 392.774 238.777C391.557 237.469 390.123 236.381 388.535 235.561C382.921 232.4 371.365 229.039 349.956 233.981C346.46 234.781 343.171 236.306 340.302 238.456C340.238 238.496 340.181 238.545 340.132 238.602C338.2 240.382 335.741 242.635 333.198 243.804C330.563 245.015 327.813 245.064 325.506 242.199C325.445 242.139 325.415 242.084 325.361 242.024C324.149 240.443 322.993 238.39 320.855 237.984C316.349 237.136 314.156 241.618 313.587 245.385C313.09 248.867 314.114 251.938 315.61 254.863C316.862 257.241 318.5 259.396 320.455 261.241C320.957 261.726 321.417 262.253 321.83 262.815C321.642 262.848 321.457 262.899 321.279 262.967C320.864 263.106 320.46 263.272 320.067 263.463C314.617 265.916 310.734 272.063 310.65 279.258C310.65 279.482 301.51 279.349 300.354 279.258C295.896 278.847 291.505 277.563 288.368 274.201C279.465 264.662 279.508 250.509 283.166 239.438C286.63 228.93 291.039 218.67 296.817 209.216C309.335 188.758 328.758 173.665 353.347 172.308C359.244 172.012 365.155 172.357 370.977 173.338C373.732 173.772 376.457 174.379 379.135 175.155C404.203 186.093 420.113 210.888 419.968 239.88" fill="#555555"/>
<path d="M405.424 473.112C402.462 480.713 395.412 485.061 389.677 482.802C383.942 480.543 381.689 472.597 384.644 464.996C387.6 457.395 394.655 453.041 400.391 455.306C406.126 457.571 408.385 465.517 405.424 473.118" fill="#00BFFF"/>
<path d="M420.659 540.992C420.659 540.992 404.573 653.126 468.916 640.699C532.908 628.325 557.127 367.991 371.898 330.55" stroke="#333333" stroke-width="7.24"/>
<path d="M270.014 433.037C270.014 433.037 218.098 476.818 246.073 520.606" stroke="#333333" stroke-width="7.24"/>
<path d="M421.828 509.844C420.938 509.898 419.666 509.305 418.8 509.069C417.701 508.778 416.613 508.467 415.535 508.136C409.21 506.168 403.259 503.154 397.929 499.221C396.718 498.355 394.562 497.798 393.084 498.367C391.409 498.982 390.202 500.46 389.935 502.225C389.481 505.35 391.685 508.408 394.09 510.413C396.942 512.799 399.904 514.998 403.362 516.427C406.7 517.767 410.144 518.827 413.658 519.595C415.251 519.964 416.868 520.2 418.448 520.606" stroke="#333333" stroke-width="7.24"/>
<path d="M441.751 479.507C442.406 482.959 442.884 486.545 442.557 490.052C442.284 493.019 441.218 496.483 437.918 497.204C437.29 497.37 436.639 497.429 435.992 497.38C423.564 496.647 413.323 492.353 401.628 483.898C389.933 475.443 385.815 494.915 396.498 498.367" stroke="#333333" stroke-width="7.24"/>
<path d="M396.949 512.763C396.662 512.527 396.389 512.274 396.132 512.006C390.311 505.92 389.258 518.147 395.368 521.745L396.156 522.211C396.568 522.387 397.01 522.593 397.446 522.817C397.652 522.871 397.882 522.962 398.094 523.023C403.617 525.445 409.498 526.996 415.288 528.577C409.559 526.705 403.847 524.864 398.094 523.023C397.597 522.817 397.125 522.611 396.628 522.375C396.476 522.311 396.318 522.262 396.156 522.229C395.946 522.134 395.702 522.157 395.514 522.29C395.376 522.403 395.274 522.555 395.223 522.726C394.284 524.979 395.047 527.82 396.247 529.836C397.506 531.968 399.668 533.609 401.8 534.778C407.536 537.994 414.204 539.896 420.642 541.035C421.836 541.282 423.059 541.361 424.276 541.271" stroke="#333333" stroke-width="7.24"/>
<path d="M476.206 555.146C476.206 555.146 456.469 521.508 454.27 492.262C452.926 474.16 447.608 470.326 443.805 470.065" stroke="#333333" stroke-width="7.24"/>
<path d="M437.925 497.198L441.765 479.508L443.812 470.06L458.989 400.011C459.445 397.899 458.921 395.693 457.564 394.011C456.206 392.329 454.161 391.351 452 391.351H361.239C357.914 391.347 355.028 393.641 354.28 396.88L336.408 473.518L323.362 529.437L322.151 534.675C321.663 536.799 322.168 539.03 323.523 540.736C324.878 542.443 326.937 543.44 329.116 543.445H420.319" stroke="#333333" stroke-width="7.24"/>
<path d="M325.391 240.183C325.391 240.183 330.193 219.815 357.314 217.114C384.434 214.413 391.23 234.678 391.23 234.678L390.376 236.719C390.376 236.719 354.722 222.413 335.032 242.83C335.032 242.83 327.94 246.046 325.391 240.195" fill="#00BFFF"/>
<path d="M332.711 473.015L290.528 462.477C287.784 461.798 284.892 462.724 283.054 464.872C281.216 467.019 280.746 470.019 281.841 472.625C282.935 475.232 285.406 476.997 288.227 477.188L308.17 478.502" stroke="#333333" stroke-width="7.24"/>
<path d="M433.732 355.333C433.732 355.333 341.596 429.972 261.203 340.828" stroke="#333333" stroke-width="7.24"/>
<path d="M258.31 445.144C256.584 427.507 247.845 386.53 204.172 387.674" stroke="#333333" stroke-width="7.24"/>
<path d="M469.847 387.662C469.847 387.662 461.616 389.927 458.461 395.463" stroke="#333333" stroke-width="7.24"/>
<path d="M135.477 656.784H526.665" stroke="#333333" stroke-width="7.24"/>
<path d="M394.904 265.62C398.592 268.721 400.96 273.784 400.96 279.513C400.96 289.022 394.353 296.713 386.189 296.713C385.265 296.708 384.345 296.601 383.445 296.392C392.954 289.125 394.88 265.62 394.88 265.62" fill="#00BFFF"/>
<path d="M341.113 303.999C350.384 308.613 361.19 309.03 370.789 305.144C397.546 293.97 396.523 261.035 393.743 243.132C393.521 241.68 393.206 240.244 392.798 238.832C389.727 228.597 381.715 220.257 371.159 217.889C350.712 213.268 332.016 224.86 324.258 240.467" stroke="#333333" stroke-width="7.24"/>
<path d="M393.05 239.153C393.05 239.153 392.966 239.032 392.79 238.832C390.973 236.785 380.453 227.016 350.001 234.036C346.507 234.834 343.22 236.359 340.354 238.511C340.286 238.55 340.225 238.599 340.172 238.657" stroke="#333333" stroke-width="7.24"/>
<path d="M311.885 288.767H296.822C285.951 288.767 277.333 278.81 273.584 269.465C268.315 256.323 271.688 242.872 276.43 230.099C280.403 219.409 285.454 209.023 292.098 199.726C306.973 178.922 329.43 167.136 355.242 169.317C357.532 169.511 359.811 169.793 362.08 170.165C396.741 175.785 420.112 204.765 419.937 239.862C419.864 248.015 418.803 256.129 416.775 264.027C414.872 271.662 408.687 277.483 400.95 278.919" stroke="#333333" stroke-width="7.24"/>
<path d="M321.838 262.816C321.423 262.252 320.964 261.724 320.463 261.235C318.507 259.394 316.87 257.241 315.618 254.864C314.122 251.938 313.099 248.868 313.595 245.385C314.153 241.642 316.345 237.136 320.863 237.984C323.001 238.396 324.14 240.443 325.369 242.024C330.045 248.08 336.483 241.994 340.431 238.336" stroke="#333333" stroke-width="7.24"/>
<path d="M394.896 265.62C398.585 268.721 400.953 273.784 400.953 279.513C400.953 289.022 394.345 296.713 386.181 296.713C385.257 296.708 384.337 296.601 383.438 296.392" stroke="#333333" stroke-width="7.24"/>
<path d="M363.289 277.29C366.596 279.513 374.584 281.336 372.979 274.747C371.053 266.94 368.461 250.261 384.335 248.989C384.335 248.989 391.324 249.286 394.776 251.66" stroke="#333333" stroke-width="7.24"/>
<path d="M369.268 290.342C369.268 290.342 361.273 294.581 357.312 286.133" stroke="#333333" stroke-width="7.24"/>
<path d="M353.062 260.393C352.753 263.076 353.801 265.395 355.406 265.583C357.011 265.771 358.561 263.766 358.876 261.065C359.191 258.364 358.131 256.069 356.532 255.881C354.933 255.693 353.371 257.698 353.062 260.393" fill="#333333"/>
<path d="M379.093 261.974C378.784 264.651 379.832 266.976 381.437 267.164C383.042 267.352 384.592 265.347 384.901 262.646C385.21 259.945 384.162 257.643 382.563 257.462C380.964 257.28 379.402 259.279 379.093 261.974" fill="#333333"/>
<path d="M363.288 250.703C363.288 250.703 358.394 243.156 347.305 250.315" stroke="#333333" stroke-width="7.24"/>
<path d="M371.889 304.647V346.509" stroke="#333333" stroke-width="7.24"/>
<path d="M206.391 555.146C206.391 555.146 223.645 538.794 246.054 520.624C265.562 504.799 288.958 487.544 308.174 478.508C310.633 477.363 313.02 476.34 315.339 475.48C320.874 473.37 326.814 472.542 332.715 473.057C333.95 473.159 335.179 473.325 336.397 473.554" stroke="#333333" stroke-width="7.24"/>
<path d="M323.354 529.436C304.404 535.111 292.467 548.508 283.461 567.313C277.471 579.801 272.287 594.161 262.869 604.517C253.718 614.517 243.01 623.292 230.613 628.937C208.119 639.172 180.423 638.385 165.809 616.128C155.925 601.035 152.037 582.284 150.063 564.648C146.671 533.997 157.379 447.596 204.17 387.668C219.202 368.391 237.953 351.869 261.173 340.81C277.471 333.07 295.895 328.006 316.777 326.571L322.628 296.392" stroke="#333333" stroke-width="7.24"/>
<path d="M462.545 641.655V656.784" stroke="#333333" stroke-width="7.24"/>
<path d="M199.811 636.253V656.784" stroke="#333333" stroke-width="7.24"/>
<path d="M340.15 279.513C340.208 284.053 338.596 288.457 335.62 291.886C333.952 292.658 332.135 293.057 330.297 293.055C322.139 293.055 315.525 285.364 315.525 275.855C315.466 271.315 317.081 266.913 320.061 263.488C321.729 262.712 323.546 262.311 325.385 262.313C333.543 262.313 340.15 270.011 340.15 279.513" fill="#00BFFF"/>
<ellipse cx="325.394" cy="279.513" rx="14.7534" ry="17.2002" stroke="#333333" stroke-width="7.24"/>
</g>
<path fill-rule="evenodd" clip-rule="evenodd" d="M500.803 129.199C482.216 123.658 462.121 129.859 449.888 144.912C437.656 159.964 435.695 180.902 444.92 197.964C454.146 215.025 472.74 224.85 492.033 222.856C511.326 220.862 527.519 207.442 533.06 188.855C540.626 163.474 526.184 136.765 500.803 129.199ZM476.711 210.016C473.001 208.908 470.892 205.004 471.999 201.294C473.106 197.585 477.011 195.475 480.72 196.583C484.43 197.69 486.539 201.594 485.432 205.304C484.325 209.013 480.42 211.123 476.711 210.016ZM500.646 161.704C500.739 161.474 500.835 161.237 500.936 160.995H500.918C501.1 160.567 501.295 160.121 501.496 159.662C503.458 155.181 505.989 149.401 502.335 145.594C498.689 141.814 490.955 140.125 486.855 144.061C483.229 147.511 482.784 154.28 482.421 159.797C482.321 161.311 482.228 162.731 482.077 163.963C480.948 171.787 480.341 179.678 480.26 187.583C480.272 190.126 484.657 191.435 486.056 189.315C491.828 180.621 496.716 171.371 500.646 161.704Z" fill="#D7E8F0"/>
<path fill-rule="evenodd" clip-rule="evenodd" d="M533.98 404.172C527.176 411.09 525.21 421.427 528.999 430.36C532.788 439.294 541.586 445.065 551.289 444.982C560.993 444.899 569.691 438.978 573.326 429.98C576.962 420.983 574.818 410.682 567.896 403.881C558.449 394.599 543.267 394.729 533.98 404.172ZM564.069 433.745C562.711 435.127 560.49 435.145 559.108 433.787C557.727 432.429 557.708 430.209 559.066 428.827C559.945 427.934 561.233 427.577 562.446 427.891C563.659 428.205 564.613 429.142 564.947 430.349C565.282 431.557 564.947 432.851 564.069 433.745ZM549.214 413.336C548.784 412.778 548.357 412.223 547.934 411.67C547.692 411.361 547.449 411.028 547.2 410.687C545.795 408.761 544.209 406.588 541.575 407.339C539.05 408.066 536.494 411.088 537.275 413.826C537.95 416.236 540.842 418.019 543.197 419.472C543.842 419.869 544.447 420.242 544.955 420.597C548.15 422.93 551.499 425.047 554.978 426.932C556.104 427.525 557.709 425.89 557.104 424.776C554.928 420.761 552.028 416.993 549.214 413.336Z" fill="#00BFFF"/>
<path fill-rule="evenodd" clip-rule="evenodd" d="M628.03 212.032C634.703 203.823 633.458 191.759 625.249 185.085C617.04 178.412 604.975 179.656 598.301 187.865C591.627 196.073 592.871 208.138 601.079 214.812C605.021 218.018 610.076 219.526 615.13 219.005C620.185 218.483 624.825 215.975 628.03 212.032ZM601.885 190.78C602.515 190.004 603.512 189.622 604.501 189.78C605.489 189.938 606.317 190.611 606.675 191.546C607.032 192.48 606.864 193.535 606.233 194.311C605.602 195.088 604.605 195.469 603.617 195.312C602.629 195.154 601.8 194.481 601.443 193.546C601.085 192.611 601.254 191.557 601.885 190.78ZM615.206 205.874C615.599 206.295 615.99 206.714 616.377 207.133V207.096C616.582 207.316 616.789 207.553 617.001 207.795C618.269 209.246 619.703 210.887 621.774 210.088C623.73 209.349 625.535 206.751 624.711 204.637C623.994 202.767 621.566 201.57 619.588 200.595C619.042 200.326 618.53 200.074 618.098 199.829C615.372 198.209 612.541 196.772 609.625 195.529C608.704 195.141 607.529 196.558 608.098 197.4C610.135 200.436 612.705 203.192 615.206 205.874Z" fill="#00BFFF"/>
<path d="M437.616 338.333C444.375 349.84 444.066 358.034 442.309 371.316C441.607 376.373 447.052 379.795 451.467 377.251C490.476 354.842 526.887 372.563 573.4 361.577C590.479 357.568 611.774 349.258 626.37 335.898C631.213 328.707 633.8 320.234 633.801 311.563C633.801 275.225 584.138 245.724 522.89 245.724C483.638 245.724 449.153 257.837 429.44 276.085C429.44 276.085 429.44 276.085 429.385 276.139C424.382 283.631 421.633 291.819 421.633 300.365C421.603 313.404 431.299 327.54 437.616 338.333V338.333Z" fill="#D7E8F0"/>
<path fill-rule="evenodd" clip-rule="evenodd" d="M421.781 300.365V301.286C421.999 314.004 428.383 325.856 435.941 336.11C441.004 342.966 447.012 350.585 445.589 358.991C444.983 362.697 442.894 366.059 442.373 369.777C441.852 373.496 443.833 378.135 447.588 378.329C449.974 378.45 452.003 376.754 453.892 375.301C465.066 366.64 479.59 363.4 493.713 362.831C507.837 362.261 521.942 364.127 536.072 364.526C556.445 365.132 577.14 362.564 595.957 354.751C612.818 347.762 628.268 336.292 638.413 320.969C648.381 305.925 642.489 284.079 631.854 270.997C621.885 258.721 607.44 250.866 592.626 245.33C552.781 230.456 507.304 230.795 468.01 247.093C456.345 251.938 445.062 258.237 436.317 267.352C427.795 276.23 421.872 288.064 421.781 300.365H421.781Z" stroke="#333333" stroke-width="7.24"/>
<circle cx="585.267" cy="299.542" r="15.2985" fill="white"/>
<circle cx="535.791" cy="299.542" r="15.2985" fill="white"/>
<circle cx="485.345" cy="299.542" r="15.2985" fill="white"/>
<path d="M226.35 755.56C225.817 758.813 224.483 761.533 222.35 763.72C220.27 765.853 217.71 767.4 214.67 768.36C217.23 768.893 219.283 770.173 220.83 772.2C222.43 774.227 223.23 776.627 223.23 779.4C223.23 780.147 223.15 780.973 222.99 781.88C222.243 786.413 219.95 790.067 216.11 792.84C212.323 795.613 207.577 797 201.87 797H177.79L187.71 741.16H210.75C215.817 741.16 219.71 742.227 222.43 744.36C225.203 746.493 226.59 749.347 226.59 752.92C226.59 753.773 226.51 754.653 226.35 755.56ZM214.67 757.24C214.723 756.92 214.75 756.44 214.75 755.8C214.75 753.933 214.137 752.493 212.91 751.48C211.683 750.467 209.897 749.96 207.55 749.96H197.39L194.83 764.36H205.07C207.683 764.36 209.843 763.747 211.55 762.52C213.257 761.24 214.297 759.48 214.67 757.24ZM211.87 780.52C211.977 779.773 212.03 779.24 212.03 778.92C212.03 777 211.337 775.507 209.95 774.44C208.617 773.32 206.75 772.76 204.35 772.76H193.31L190.67 788.12H201.95C204.67 788.12 206.91 787.453 208.67 786.12C210.43 784.787 211.497 782.92 211.87 780.52ZM243.196 747.4C241.436 747.4 240.023 746.893 238.956 745.88C237.89 744.867 237.356 743.587 237.356 742.04C237.356 739.907 238.156 738.093 239.756 736.6C241.41 735.053 243.33 734.28 245.516 734.28C247.223 734.28 248.61 734.787 249.676 735.8C250.743 736.813 251.276 738.093 251.276 739.64C251.276 741.773 250.476 743.613 248.876 745.16C247.276 746.653 245.383 747.4 243.196 747.4ZM247.836 752.68L239.996 797H228.716L236.556 752.68H247.836ZM251.622 774.68C252.422 770.2 253.995 766.227 256.342 762.76C258.742 759.293 261.649 756.627 265.062 754.76C268.529 752.893 272.155 751.96 275.942 751.96C278.822 751.96 281.462 752.6 283.862 753.88C286.262 755.107 288.049 756.76 289.222 758.84L292.982 737.8H304.262L293.782 797H282.502L283.702 790.44C281.942 792.627 279.675 794.387 276.902 795.72C274.182 797.053 271.169 797.72 267.862 797.72C264.609 797.72 261.702 797 259.142 795.56C256.635 794.067 254.662 791.987 253.222 789.32C251.835 786.6 251.142 783.453 251.142 779.88C251.142 778.227 251.302 776.493 251.622 774.68ZM286.422 774.84C286.635 773.453 286.742 772.44 286.742 771.8C286.742 768.653 285.809 766.2 283.942 764.44C282.129 762.68 279.835 761.8 277.062 761.8C274.982 761.8 272.955 762.307 270.982 763.32C269.062 764.333 267.382 765.827 265.942 767.8C264.502 769.72 263.542 772.013 263.062 774.68C262.902 775.693 262.822 776.653 262.822 777.56C262.822 780.76 263.729 783.293 265.542 785.16C267.355 786.973 269.649 787.88 272.422 787.88C274.502 787.88 276.529 787.373 278.502 786.36C280.475 785.293 282.155 783.773 283.542 781.8C284.982 779.827 285.942 777.507 286.422 774.84Z" fill="#333333"/>
<path d="M369.567 741.16L367.967 749.96H344.767L342.207 764.6H359.967L358.447 773.24H340.607L336.447 797H325.167L335.087 741.16H369.567ZM388.869 737.8L378.389 797H367.109L377.589 737.8H388.869ZM408.734 797.72C404.948 797.72 401.588 796.947 398.654 795.4C395.774 793.853 393.534 791.667 391.934 788.84C390.334 786.013 389.534 782.76 389.534 779.08C389.534 774.067 390.708 769.507 393.054 765.4C395.454 761.24 398.708 757.96 402.814 755.56C406.974 753.16 411.588 751.96 416.654 751.96C420.441 751.96 423.801 752.76 426.734 754.36C429.721 755.907 432.014 758.093 433.614 760.92C435.268 763.747 436.094 767 436.094 770.68C436.094 775.747 434.894 780.333 432.494 784.44C430.094 788.547 426.788 791.8 422.574 794.2C418.414 796.547 413.801 797.72 408.734 797.72ZM410.254 788.12C412.921 788.12 415.348 787.347 417.534 785.8C419.721 784.253 421.428 782.2 422.654 779.64C423.881 777.08 424.494 774.387 424.494 771.56C424.494 768.36 423.588 765.907 421.774 764.2C420.014 762.44 417.774 761.56 415.054 761.56C412.334 761.56 409.908 762.333 407.774 763.88C405.694 765.427 404.068 767.507 402.894 770.12C401.721 772.68 401.134 775.4 401.134 778.28C401.134 781.427 401.961 783.853 403.614 785.56C405.321 787.267 407.534 788.12 410.254 788.12ZM508.79 752.68L487.99 797H475.83L473.27 766.2L459.67 797H447.51L442.39 752.68H453.67L455.59 786.44L470.07 752.68H481.91L484.31 786.36L497.99 752.68H508.79Z" fill="#00BFFF"/>
</svg>
