<svg width="45" height="45" viewBox="0 0 45 45" fill="none" xmlns="http://www.w3.org/2000/svg">
<g filter="url(#filter0_d_1216_37541)">
<rect x="4" y="2" width="37" height="37" rx="18.5" fill="white"/>
<rect x="4.5" y="2.5" width="36" height="36" rx="18" stroke="#008BE1"/>
</g>
<g clip-path="url(#clip0_1216_37541)">
<path d="M30.7167 20.6816H27.5359V19.0912H30.7167V20.6816ZM30.7167 21.5903H27.5359V23.1807H30.7167V21.5903ZM30.7167 14.0929H27.5359V15.6833H30.7167V14.093V14.0929ZM30.7167 16.5921H27.5359V18.1824H30.7167V16.5921ZM30.7167 24.0895H27.5359V25.6799H30.7167V24.0894V24.0895ZM32.9136 27.2248C32.8228 27.6974 32.2548 27.7087 31.8754 27.7246H24.8096V29.7694H23.3987L13 27.9518V12.0505L23.4601 10.2306H24.8096V12.0414H31.6323C32.0163 12.0573 32.4388 12.03 32.7728 12.2594C33.0068 12.5957 32.9841 13.0228 33 13.4091L32.9909 25.2368C32.9796 25.898 33.0522 26.5728 32.9136 27.2248ZM21.3312 23.6601C20.7042 22.3878 20.0658 21.1246 19.441 19.8523C20.0589 18.6141 20.6679 17.3714 21.2745 16.1286C20.7587 16.1536 20.243 16.1854 19.7295 16.2218C19.3455 17.1555 18.898 18.0643 18.5981 19.0299C18.3186 18.1188 17.9483 17.2418 17.6098 16.3535C17.11 16.3808 16.6101 16.4103 16.1103 16.4398C16.6374 17.6031 17.1986 18.7504 17.7098 19.9205C17.1077 21.0564 16.5443 22.2084 15.9604 23.3511C16.4579 23.3716 16.9555 23.392 17.453 23.3988C17.8075 22.4946 18.2482 21.6244 18.5572 20.702C18.8344 21.6926 19.3046 22.6082 19.6909 23.5556C20.2384 23.5943 20.7837 23.6283 21.3313 23.6601H21.3312ZM31.9164 13.1204H24.8096V14.0929H26.6272V15.6833H24.8096V16.5921H26.6272V18.1824H24.8096V19.0912H26.6272V20.6816H24.8096V21.5903H26.6272V23.1807H24.8096V24.0895H26.6272V25.6799H24.8096V26.7305H31.9164V13.1204Z" fill="#008BE1"/>
</g>
<defs>
<filter id="filter0_d_1216_37541" x="0" y="0" width="45" height="45" filterUnits="userSpaceOnUse" color-interpolation-filters="sRGB">
<feFlood flood-opacity="0" result="BackgroundImageFix"/>
<feColorMatrix in="SourceAlpha" type="matrix" values="0 0 0 0 0 0 0 0 0 0 0 0 0 0 0 0 0 0 127 0" result="hardAlpha"/>
<feOffset dy="2"/>
<feGaussianBlur stdDeviation="2"/>
<feComposite in2="hardAlpha" operator="out"/>
<feColorMatrix type="matrix" values="0 0 0 0 0 0 0 0 0 0 0 0 0 0 0 0 0 0 0.1 0"/>
<feBlend mode="normal" in2="BackgroundImageFix" result="effect1_dropShadow_1216_37541"/>
<feBlend mode="normal" in="SourceGraphic" in2="effect1_dropShadow_1216_37541" result="shape"/>
</filter>
<clipPath id="clip0_1216_37541">
<rect width="20" height="20" fill="white" transform="translate(13 10)"/>
</clipPath>
</defs>
</svg>
