<svg width="16" height="22" viewBox="0 0 16 22" fill="none" xmlns="http://www.w3.org/2000/svg">
<g clip-path="url(#clip0_5443_60938)">
<path d="M2.66667 0C1.19583 0 0 1.19583 0 2.66667V18.6667C0 20.1375 1.19583 21.3333 2.66667 21.3333H13.3333C14.8042 21.3333 16 20.1375 16 18.6667V6.66667H10.6667C9.92917 6.66667 9.33333 6.07083 9.33333 5.33333V0H2.66667ZM10.6667 0V5.33333H16L10.6667 0ZM2.66667 3.33333C2.66667 2.96667 2.96667 2.66667 3.33333 2.66667H6C6.36667 2.66667 6.66667 2.96667 6.66667 3.33333C6.66667 3.7 6.36667 4 6 4H3.33333C2.96667 4 2.66667 3.7 2.66667 3.33333ZM2.66667 6C2.66667 5.63333 2.96667 5.33333 3.33333 5.33333H6C6.36667 5.33333 6.66667 5.63333 6.66667 6C6.66667 6.36667 6.36667 6.66667 6 6.66667H3.33333C2.96667 6.66667 2.66667 6.36667 2.66667 6ZM8 9C8.36667 9 8.66667 9.3 8.66667 9.66667V10.3875C9.02083 10.4375 9.3625 10.5167 9.67083 10.6C10.025 10.6958 10.2375 11.0583 10.1417 11.4167C10.0458 11.775 9.68333 11.9833 9.325 11.8875C8.8625 11.7625 8.40833 11.6708 7.9875 11.6667C7.6375 11.6625 7.2625 11.7417 7.00417 11.8958C6.76667 12.0375 6.66667 12.2 6.66667 12.4292C6.66667 12.5833 6.72083 12.7 6.97083 12.85C7.25833 13.0208 7.6625 13.1458 8.1875 13.3042L8.20833 13.3083C8.67917 13.45 9.2625 13.625 9.72083 13.9167C10.225 14.2333 10.6542 14.7375 10.6667 15.5083C10.6792 16.3125 10.2667 16.8958 9.7125 17.2417C9.39167 17.4417 9.02917 17.5583 8.66667 17.6208V18.3333C8.66667 18.7 8.36667 19 8 19C7.63333 19 7.33333 18.7 7.33333 18.3333V17.5917C6.86667 17.5042 6.42917 17.3542 6.04583 17.2208C5.95833 17.1917 5.87083 17.1625 5.7875 17.1333C5.4375 17.0167 5.25 16.6375 5.36667 16.2917C5.48333 15.9458 5.8625 15.7542 6.20833 15.8708C6.3125 15.9042 6.40833 15.9375 6.50417 15.9708C7.07083 16.1625 7.52917 16.3208 8.01667 16.3333C8.39583 16.3458 8.7625 16.2625 9.00417 16.1125C9.21667 15.9792 9.33333 15.8083 9.32917 15.5292C9.325 15.3375 9.25417 15.2042 9.00833 15.0458C8.725 14.8667 8.32083 14.7375 7.8 14.5792L7.73333 14.5583C7.275 14.4208 6.72083 14.2542 6.28333 13.9875C5.78333 13.6875 5.34167 13.2 5.3375 12.4333C5.33333 11.625 5.7875 11.0667 6.32917 10.7458C6.64167 10.5625 6.9875 10.4458 7.33333 10.3833V9.66667C7.33333 9.3 7.63333 9 8 9Z" fill="#7B61FF"/>
</g>
<defs>
<clipPath id="clip0_5443_60938">
<rect width="16" height="21.3333" fill="white"/>
</clipPath>
</defs>
</svg>
