<svg width="20" height="20" viewBox="0 0 20 20" fill="none" xmlns="http://www.w3.org/2000/svg">
<g clip-path="url(#clip0_5443_60951)">
<path d="M4.16634 5.00016C2.99967 5.00016 2.08301 4.0835 2.08301 2.91683C2.08301 1.75016 2.99967 0.833496 4.16634 0.833496C5.33301 0.833496 6.24967 1.75016 6.24967 2.91683C6.24967 4.0835 5.33301 5.00016 4.16634 5.00016Z" fill="#FE3A30"/>
<path d="M0.833008 9.16683V12.5002L2.08301 13.3335L2.49967 19.1668H5.83301L6.24967 13.3335L7.49967 12.5002V9.16683C7.49967 7.3335 5.99967 5.8335 4.16634 5.8335C2.33301 5.8335 0.833008 7.3335 0.833008 9.16683Z" fill="#FE3A30"/>
<path d="M9.33398 16.8335C9.08398 17.8752 8.91732 18.3335 8.33398 18.3335C8.08398 18.3335 7.83398 18.1252 7.54232 17.8752C7.12565 17.5418 6.62565 17.0835 5.83398 17.0835V17.9168C6.29232 17.9168 6.62565 18.2085 7.00065 18.5002C7.37565 18.7918 7.79232 19.1668 8.33398 19.1668C9.62565 19.1668 9.91732 17.9585 10.1673 17.0002C10.4173 15.9168 10.584 15.4168 11.2507 15.4168V14.5835C9.87565 14.5835 9.54232 15.8752 9.33398 16.8335Z" fill="#FE3A30"/>
<path d="M6.00033 16.667H4.16699V18.3337H5.87533L6.00033 16.667Z" fill="#FE3A30"/>
<path d="M14.9997 19.1668C17.3009 19.1668 19.1663 17.3013 19.1663 15.0002C19.1663 12.699 17.3009 10.8335 14.9997 10.8335C12.6985 10.8335 10.833 12.699 10.833 15.0002C10.833 17.3013 12.6985 19.1668 14.9997 19.1668Z" fill="#FE3A30"/>
<path d="M14.5837 14.1665C14.6253 14.2498 14.6253 14.2915 14.7087 14.3332C14.7503 14.3748 14.8337 14.4165 14.917 14.4998C15.0003 14.5415 15.1253 14.5832 15.2503 14.6248C15.4587 14.7082 15.6253 14.7915 15.792 14.8748C15.9587 14.9582 16.0837 15.0415 16.2087 15.1665C16.3337 15.2915 16.417 15.4165 16.5003 15.5415C16.5837 15.7082 16.5837 15.8748 16.5837 16.0832C16.5837 16.2498 16.542 16.4165 16.5003 16.5832C16.4587 16.7498 16.3753 16.8748 16.2503 16.9582C16.1253 17.0832 16.0003 17.1665 15.8753 17.2082C15.7087 17.2915 15.542 17.3332 15.3753 17.3332V17.9582H14.8753V17.3332C14.7087 17.3332 14.542 17.2915 14.3753 17.2082C14.2087 17.1248 14.0837 17.0415 13.9587 16.9582C13.8337 16.8332 13.7503 16.7082 13.667 16.4998C13.5837 16.3332 13.542 16.1248 13.542 15.8748H14.4587C14.4587 16.0415 14.4587 16.1665 14.5003 16.2498C14.542 16.3332 14.5837 16.4165 14.667 16.4998C14.7503 16.5415 14.792 16.5832 14.8753 16.6248C14.9587 16.6665 15.042 16.6665 15.1253 16.6665C15.2087 16.6665 15.292 16.6665 15.3753 16.6248C15.4587 16.5832 15.5003 16.5415 15.542 16.4998C15.5837 16.4582 15.6253 16.3748 15.667 16.3332C15.7087 16.2498 15.7087 16.2082 15.7087 16.1248C15.7087 16.0415 15.7087 15.9582 15.667 15.8748C15.6253 15.7915 15.6253 15.7498 15.542 15.7082C15.5003 15.6665 15.417 15.5832 15.3337 15.5415C15.2503 15.4998 15.167 15.4582 15.042 15.4165C14.8337 15.3332 14.667 15.2498 14.5003 15.1665C14.3337 15.0832 14.2087 14.9998 14.0837 14.8748C13.9587 14.7498 13.8753 14.6248 13.792 14.4998C13.7087 14.3332 13.7087 14.1665 13.7087 13.9582C13.7087 13.7915 13.7503 13.6248 13.792 13.4582C13.8337 13.3332 13.917 13.1665 14.042 13.0832C14.167 12.9582 14.292 12.8748 14.417 12.8332C14.5837 12.7498 14.7503 12.7082 14.917 12.7082V12.0415H15.417V12.7082C15.5837 12.7498 15.7503 12.7915 15.917 12.8748C16.0837 12.9582 16.167 13.0415 16.292 13.1665C16.3753 13.2915 16.4587 13.4165 16.542 13.5832C16.5837 13.7498 16.6253 13.9582 16.6253 14.1665H15.7087C15.7087 13.9165 15.667 13.7498 15.542 13.6248C15.4587 13.4998 15.292 13.4582 15.1253 13.4582C15.042 13.4582 14.9587 13.4582 14.8753 13.4998C14.792 13.5415 14.7503 13.5832 14.7087 13.6248C14.6253 13.6248 14.5837 13.6665 14.5837 13.7498C14.5837 13.8332 14.542 13.8748 14.542 13.9582C14.542 14.0415 14.542 14.1248 14.5837 14.1665V14.1665Z" fill="#FE3A30"/>
</g>
<defs>
<clipPath id="clip0_5443_60951">
<rect width="20" height="20" fill="white"/>
</clipPath>
</defs>
</svg>
