<svg width="20" height="20" viewBox="0 0 20 20" fill="none" xmlns="http://www.w3.org/2000/svg">
<path d="M9.16699 12.7982H9.12449C8.91475 12.7982 8.7136 12.7149 8.56529 12.5665C8.41698 12.4182 8.33366 12.2171 8.33366 12.0073C8.33366 11.7863 8.24586 11.5744 8.08958 11.4181C7.9333 11.2618 7.72134 11.174 7.50033 11.174C7.27931 11.174 7.06735 11.2618 6.91107 11.4181C6.75479 11.5744 6.66699 11.7863 6.66699 12.0073C6.66699 12.6591 6.92591 13.2842 7.38678 13.7451C7.84765 14.2059 8.47272 14.4648 9.12449 14.4648H9.16699V15.2982C9.16699 15.5192 9.25479 15.7312 9.41107 15.8874C9.56735 16.0437 9.77931 16.1315 10.0003 16.1315C10.2213 16.1315 10.4333 16.0437 10.5896 15.8874C10.7459 15.7312 10.8337 15.5192 10.8337 15.2982V14.4648C11.4967 14.4648 12.1326 14.2015 12.6014 13.7326C13.0703 13.2638 13.3337 12.6279 13.3337 11.9648C13.3337 11.3018 13.0703 10.6659 12.6014 10.1971C12.1326 9.72824 11.4967 9.46484 10.8337 9.46484V7.79818H10.852C11.302 7.79818 11.667 8.16318 11.667 8.61318C11.667 8.83419 11.7548 9.04615 11.9111 9.20243C12.0674 9.35871 12.2793 9.44651 12.5003 9.44651C12.7213 9.44651 12.9333 9.35871 13.0896 9.20243C13.2459 9.04615 13.3337 8.83419 13.3337 8.61318C13.3337 7.955 13.0722 7.32378 12.6068 6.85837C12.1414 6.39297 11.5102 6.13151 10.852 6.13151H10.8337V5.29818C10.8337 5.07716 10.7459 4.8652 10.5896 4.70892C10.4333 4.55264 10.2213 4.46484 10.0003 4.46484C9.77931 4.46484 9.56735 4.55264 9.41107 4.70892C9.25479 4.8652 9.16699 5.07716 9.16699 5.29818V6.13151C8.83869 6.13151 8.5136 6.19618 8.21028 6.32181C7.90697 6.44745 7.63137 6.6316 7.39923 6.86374C7.16708 7.09589 6.98293 7.37149 6.85729 7.6748C6.73166 7.97812 6.66699 8.30321 6.66699 8.63151C6.66699 8.95982 6.73166 9.2849 6.85729 9.58822C6.98293 9.89153 7.16708 10.1671 7.39923 10.3993C7.63137 10.6314 7.90697 10.8156 8.21028 10.9412C8.5136 11.0668 8.83869 11.1315 9.16699 11.1315V12.7982ZM10.8337 12.7982V11.1315C11.0547 11.1315 11.2666 11.2193 11.4229 11.3756C11.5792 11.5319 11.667 11.7438 11.667 11.9648C11.667 12.1859 11.5792 12.3978 11.4229 12.5541C11.2666 12.7104 11.0547 12.7982 10.8337 12.7982ZM9.16699 7.79818V9.46484C8.94598 9.46484 8.73402 9.37705 8.57774 9.22077C8.42146 9.06449 8.33366 8.85252 8.33366 8.63151C8.33366 8.4105 8.42146 8.19853 8.57774 8.04225C8.73402 7.88597 8.94598 7.79818 9.16699 7.79818ZM10.0003 18.6315C5.39783 18.6315 1.66699 14.9007 1.66699 10.2982C1.66699 5.69568 5.39783 1.96484 10.0003 1.96484C14.6028 1.96484 18.3337 5.69568 18.3337 10.2982C18.3337 14.9007 14.6028 18.6315 10.0003 18.6315Z" fill="#159500"/>
</svg>
