<svg width="20" height="21" viewBox="0 0 20 21" fill="none" xmlns="http://www.w3.org/2000/svg">
<path d="M12.5 2.98645C12.721 2.98645 12.933 3.07425 13.0892 3.23053C13.2455 3.38681 13.3333 3.59877 13.3333 3.81978V5.48645H16.6666C16.8877 5.48645 17.0996 5.57425 17.2559 5.73053C17.4122 5.88681 17.5 6.09877 17.5 6.31978V16.3198H19.1666V17.9865H0.833313V16.3198H2.49998V6.31978C2.49998 6.09877 2.58778 5.88681 2.74406 5.73053C2.90034 5.57425 3.1123 5.48645 3.33331 5.48645H6.66665V3.81978C6.66665 3.59877 6.75444 3.38681 6.91072 3.23053C7.067 3.07425 7.27897 2.98645 7.49998 2.98645H12.5ZM8.33331 7.15312H6.66665V16.3198H8.33331V7.15312ZM13.3333 7.15312H11.6666V16.3198H13.3333V7.15312ZM11.6666 4.65312H8.33331V5.48645H11.6666V4.65312Z" fill="#FFC120"/>
</svg>
